<?xml version="1.0" encoding="UTF-8"?>
<svg id="Capa_2" data-name="Capa 2" xmlns="http://www.w3.org/2000/svg" viewBox="0 0 329.84 30.68">
  <defs>
    <style>
      .cls-1 {
        fill: #fff;
      }
    </style>
  </defs>
  <g id="Capa_1-2" data-name="Capa 1">
    <g>
      <path class="cls-1" d="M0,30.68V0H3.83V3.83h3.84v3.83h3.83v3.84h3.83v-3.84h3.84V3.83h3.83V0h3.83V30.68h-7.66V15.34h-3.84v3.83h-3.83v-3.83h-3.83v15.34H0Z"/>
      <path class="cls-1" d="M36.43,30.68v-3.83h-3.83V11.51h7.67v15.34h11.51V11.51h7.66v15.34h-3.83v3.83h-19.18Z"/>
      <path class="cls-1" d="M65.2,30.68v-3.83h19.18v-3.83h-15.35v-3.84h-3.83v-3.83h3.83v-3.83h19.18v3.83h-15.34v3.83h15.34v3.84h3.83v3.83h-3.83v3.83h-23.01Z"/>
      <path class="cls-1" d="M97.8,30.68V0h7.67V11.51h15.34v3.83h3.83v15.34h-7.66V15.34h-11.51v15.34h-7.67Z"/>
      <path class="cls-1" d="M130.41,30.68V11.51h7.67v3.83h3.83v3.83h-3.83v11.51h-7.67Zm11.51-15.34v-3.83h11.51v3.83h-11.51Z"/>
      <path class="cls-1" d="M163,30.68v-3.83h-3.83V15.34h3.83v-3.83h19.18v3.83h3.83v11.51h-3.83v3.83h-19.18Zm15.35-3.83V15.34h-11.51v11.51h11.51Z"/>
      <path class="cls-1" d="M195.6,30.68v-3.83h-3.83V15.34h3.83v-3.83h19.18v3.83h3.83v11.51h-3.83v3.83h-19.18Zm15.35-3.83V15.34h-11.51v11.51h11.51Z"/>
      <path class="cls-1" d="M224.37,30.68V11.51h23.01v3.83h3.83v15.34h-7.66V15.34h-3.84v15.34h-3.83V15.34h-3.83v15.34h-7.67Z"/>
      <path class="cls-1" d="M256.97,7.66V0h7.67V7.66h-7.67Zm0,23.01V11.51h7.67V30.68h-7.67Z"/>
      <path class="cls-1" d="M270.39,30.68v-3.83h3.83v-3.83h3.84v-3.84h3.83v-3.83h-11.51v-3.83h26.84v3.83h-3.83v3.83h-3.83v3.84h-3.84v3.83h11.51v3.83h-26.84Z"/>
      <path class="cls-1" d="M306.83,30.68v-3.83h-3.83V15.34h3.83v-3.83h19.18v3.83h3.83v7.67h-19.17v3.83h15.34v3.83h-19.18Zm15.35-11.51v-3.83h-11.51v3.83h11.51Z"/>
    </g>
  </g>
</svg>